<?xml version="1.0" encoding="UTF-8"?>
<!DOCTYPE svg PUBLIC "-//W3C//DTD SVG 1.1//EN" "http://www.w3.org/Graphics/SVG/1.1/DTD/svg11.dtd">
<!-- Creator: CorelDRAW -->
<svg xmlns="http://www.w3.org/2000/svg" xml:space="preserve" width="210mm" height="297mm" version="1.1" style="shape-rendering:geometricPrecision; text-rendering:geometricPrecision; image-rendering:optimizeQuality; fill-rule:evenodd; clip-rule:evenodd"
viewBox="0 0 21000 29700"
 xmlns:xlink="http://www.w3.org/1999/xlink"
 xmlns:xodm="http://www.corel.com/coreldraw/odm/2003">
 <defs>
  <style type="text/css">
   <![CDATA[
    .fil1 {fill:black}
    .fil0 {fill:black;fill-rule:nonzero}
   ]]>
  </style>
 </defs>
 <g id="Слой_x0020_1">
  <metadata id="CorelCorpID_0Corel-Layer"/>
  <g id="_140465900642672">
   <path class="fil0" d="M9406.87 15977.19l565.02 -744.06c25.57,-32.55 46.5,-67.43 60.45,-102.3 13.95,-34.88 20.93,-67.43 20.93,-97.66l0 -2.32c0,-46.51 -13.95,-79.06 -41.85,-104.64 -30.23,-23.25 -69.76,-34.87 -123.24,-34.87 -51.15,0 -93,16.27 -125.56,48.82 -32.55,34.88 -51.15,81.38 -58.13,144.16l0 2.33 -318.54 0 0 -2.33c6.97,-102.3 32.55,-190.66 74.4,-265.06 41.86,-74.41 99.98,-130.21 172.06,-169.74 74.41,-39.53 158.11,-58.13 253.45,-58.13 102.3,0 190.66,16.28 262.74,48.83 74.4,34.88 130.21,83.7 167.41,148.81 39.53,62.78 58.13,141.83 58.13,232.51l0 0c0,74.41 -13.95,148.82 -39.53,223.22 -25.57,74.41 -62.78,141.84 -109.28,199.96l-406.9 513.86 565.01 0 0 299.95 -976.57 0 0 -281.34z"/>
   <path class="fil0" d="M10616.15 15977.19l565.02 -744.06c25.57,-32.55 46.5,-67.43 60.45,-102.3 13.95,-34.88 20.93,-67.43 20.93,-97.66l0 -2.32c0,-46.51 -13.95,-79.06 -41.85,-104.64 -30.23,-23.25 -69.76,-34.87 -123.24,-34.87 -51.15,0 -93,16.27 -125.56,48.82 -32.55,34.88 -51.15,81.38 -58.13,144.16l0 2.33 -318.54 0 0 -2.33c6.97,-102.3 32.55,-190.66 74.4,-265.06 41.86,-74.41 99.98,-130.21 172.06,-169.74 74.41,-39.53 158.11,-58.13 253.45,-58.13 102.3,0 190.66,16.28 262.74,48.83 74.4,34.88 130.21,83.7 167.41,148.81 39.53,62.78 58.13,141.83 58.13,232.51l0 0c0,74.41 -13.95,148.82 -39.53,223.22 -25.57,74.41 -62.78,141.84 -109.28,199.96l-406.9 513.86 565.01 0 0 299.95 -976.57 0 0 -281.34z"/>
   <path class="fil1" d="M10492.86 4041.23c-4316.8,0 -7816.26,3709.52 -7816.26,8285.45 0,4575.93 3499.46,8285.45 7816.26,8285.45 4316.8,0 7816.27,-3709.52 7816.27,-8285.45 0,-4575.93 -3499.47,-8285.45 -7816.27,-8285.45zm0 555.51c-4027.38,0 -7292.21,3460.81 -7292.21,7729.94 0,4269.13 3264.83,7729.94 7292.21,7729.94 4027.38,0 7292.22,-3460.81 7292.22,-7729.94 0,-4269.13 -3264.84,-7729.94 -7292.22,-7729.94z"/>
   <path class="fil1" d="M11749.51 17728.92c5.24,-102.3 -61.1,-209.19 -130.95,-212.37 -60.98,-2.82 -125.23,90.67 -130.88,189.09 -5.27,101.25 28.23,136.53 138.64,145.7 83.66,7.05 118.54,-27.52 123.19,-122.42zm-2329.1 16.94c-3.18,-132.65 -53.99,-217.31 -130.53,-215.9 -84.26,1.06 -154.17,95.6 -150.29,203.55 3.96,101.6 31.75,121.36 168.63,119.24 81.15,-1.41 113.6,-32.45 112.19,-106.89zm2852.26 -6952.2c106.52,0 214.08,-104.06 216.19,-208.48 2.17,-101.62 -108.3,-209.91 -214.48,-210.96 -106.88,-0.71 -221.9,105.48 -221.19,204.96 1.12,107.94 110.06,214.84 219.48,214.48zm-3644.18 -214.49c0.63,-113.59 -92.15,-203.9 -210.68,-204.95 -116.75,-1.43 -223.66,95.6 -225.07,203.55 -1.37,113.24 105.48,216.6 223.31,215.9 116.79,-0.37 212.02,-96.66 212.44,-214.5zm4649.23 92.07c22.94,547.17 -388.45,865.73 -708.42,926.05 -349.57,65.97 -767.29,-105.48 -986.01,-577.85 48.75,292.81 208.13,500.6 476.6,632.89 319.62,158.04 713.67,75.85 942.97,-137.94 245.89,-229.31 330.55,-514.35 274.86,-843.15zm-5538.63 -42.68c-94.85,285.04 13.73,697.8 297.01,918.29 327.03,254.35 721.08,247.65 1038.93,30.69 215.92,-147.46 379.59,-449.79 329.49,-587.38 -181.99,445.91 -573.25,690.39 -983.54,609.96 -345.34,-68.09 -731.66,-426.86 -681.89,-971.56zm6464.7 1241.78c463.86,205.32 686.08,582.44 769.34,1080.56 5.99,-16.23 9.51,-23.98 11.64,-31.74 80.79,-264.59 136.88,-534.46 152.4,-810.69 20.15,-366.19 -7.76,-729.54 -79.02,-1089.73 -112.84,-571.87 -298.1,-1114.07 -633.24,-1597.38 -17.61,-24.7 -38.45,-47.27 -55.39,-67.73 -55.32,45.85 -100.9,87.49 -149.93,124.18 -50.41,37.38 -104.42,69.85 -165.1,110.06 26.11,6.69 43.4,11.29 60.33,15.52 121.03,31.75 124.18,45.51 49.39,143.94 -13.05,17.27 -16.94,53.98 -8.12,74.08 301.7,673.44 337.61,1352.9 47.7,2048.93zm-7343.14 -2070.81c-26.75,-38.44 -52.92,-75.49 -80.79,-115.7 -18.27,-26.11 -6.71,-62.09 22.93,-73.02 35,-13.07 62.45,-22.94 83.26,-30.7 -96.6,-69.85 -198.97,-143.58 -301.27,-217.31 -768.31,932.74 -956.03,2777.07 -576.8,3643.14 22.64,-244.48 91.38,-474.49 234.6,-680.16 142.53,-205.32 345.02,-339.72 554.57,-463.55 -26.75,-67.04 -52.56,-125.23 -74.08,-184.85 -154.84,-433.57 -168.28,-877.01 -76.2,-1323.27 40.58,-196.86 77.61,-400.05 213.78,-554.58zm1113.79 -232.83c-83.67,-16.23 -166.94,-39.5 -251.25,-46.56 -84.67,-7.41 -174.63,-18.7 -257.17,41.27 15.58,13.41 122.76,69.85 167.57,87.49 573.97,224.37 1119.36,505.18 1643.58,827.62 270.64,166.51 511.17,363.36 654.76,657.22 6.72,13.76 15.88,26.46 34.57,56.81 -1.74,-292.83 -21.16,-559.51 -149.57,-817.75 126.32,98.06 239.17,186.27 352.42,274.47 -10.51,-47.98 -32.1,-86.08 -54.33,-123.83 -117.4,-201.09 -226.83,-405.69 -387.35,-579.26 -264.56,-286.46 -579.62,-503.77 -921.8,-680.86 -424.72,-219.8 -859.73,-420.87 -1286.58,-636.77 -398.61,-201.8 -776.82,-435.68 -1095.38,-753.53 -110.4,-110.43 -210.25,-231.42 -321.03,-354.19 37.04,173.21 75.85,338.31 165.1,487.54 240.64,402.51 584.55,694.62 984.96,927.1 112.21,65.26 225.06,129.82 337.61,194.38 -2.83,6.34 -578.21,-188.03 -863.6,-291.75 2.17,21.52 9.87,28.93 17.99,35.99 211.67,184.49 468.48,288.22 718.96,404.28 176.45,81.48 513.64,281.52 510.54,290.33zm5006.57 14.47c190.19,-101.96 380.63,-202.84 570.07,-305.86 214.56,-116.42 428.98,-233.54 641.34,-353.13 38.51,-21.53 68.45,-57.15 102.31,-86.08 -3.87,-5.64 -7.4,-11.29 -11.28,-16.93 -279.37,98.42 -558.45,197.21 -837.5,295.63 665.36,-380.66 1264,-814.56 1453.8,-1629.48 -81.84,105.12 -149.23,209.9 -233.89,297.74 -298.4,309.73 -644.88,558.1 -1028.35,751.07 -477.27,240.59 -962.03,466.01 -1438.63,708.37 -437.38,222.24 -828.67,506.94 -1114.08,915.46 -107.93,154.51 -202.84,318.21 -303.73,477.66 7.05,6.69 254.7,-156.98 391.23,-260.35 -125.58,268.81 -188.03,526.35 -149.23,811.04 103.03,-196.51 203.2,-383.12 378.89,-505.88 188.8,-131.96 379.23,-266 584.2,-368.66 467.49,-234.95 944.02,-451.55 1417.11,-675.57 41.69,-19.75 83.6,-40.21 138.28,-66.67 -202.08,-108.32 -557.03,19.05 -560.54,11.64zm-5790.16 373.59c-15.88,31.75 -35.98,65.62 -50.8,101.96 -158.04,388.05 -225.79,788.45 -141.82,1203.67 111.49,549.98 382.05,990.25 898.17,1249.54 301.32,151.34 615.25,246.24 954.98,155.58 121.75,-32.46 237.77,-86.43 360.53,-132.3 -191.15,166.51 -395.46,307.98 -633.23,391.23 -111.8,39.15 -236.37,86.44 -348.55,73.39 -360.87,-42 -678.74,-201.44 -938.38,-453.32 -165.44,-160.52 -303.4,-349.61 -452.62,-524.94 -427.19,446.26 -734.13,2068.69 -463.91,2508.25 -7.73,-228.6 16.94,-385.94 25.41,-578.91 208.56,1674.28 1184.62,2585.51 1783.29,2890.67 -9.14,-19.41 -928.16,-1119.02 -1049.88,-2263.43 -26.06,-246.24 -6.34,-491.42 34.23,-745.06 24.4,163.33 45.5,317.14 70.21,469.89 116.43,717.2 394.75,1367.37 823.72,1951.57 334.83,455.79 744.73,823.03 1273.54,1041.75 118.56,49.04 240.94,88.55 361.6,132.65 3.9,-6.35 8.11,-13.05 12.34,-19.76 -749.25,-779.64 -1179.69,-1670.75 -968.03,-2793.29 214.5,-0.36 413.46,-59.27 526.71,-279.75 -41.23,267.05 -114.3,508.7 -414.88,584.9 1.46,261.05 26.47,512.24 91.03,756.36 221.19,833.95 709.08,1484.49 1393.12,1996.01 134.1,100.54 138.28,99.13 278.35,-5.64 396.22,-295.99 727.06,-651.93 980,-1078.09 290.77,-488.95 470.26,-1012.83 491.07,-1586.09 1.79,-50.1 -12.7,-74.44 -59.26,-96.31 -189.78,-90.31 -385.24,-352.78 -419.82,-561.62 151.7,229.3 383.48,256.47 619.49,267.76 167.92,1099.6 -238.83,1995.66 -969.79,2786.59 19.8,0 30.69,3.18 39.15,-0.35 90.03,-35.28 179.22,-71.97 268.83,-107.6 472.07,-188.39 867.13,-484.72 1184.63,-878.06 509.1,-630.77 798.68,-1362.43 950.02,-2153 25.81,-135.12 43.4,-272 64.56,-408.17 13.48,34.22 14.47,69.85 19.05,105.13 41.34,309.38 21.88,615.6 -41.98,920.4 -138.93,661.8 -457.2,1236.83 -851.6,1775.88 -29.97,41.62 -58.57,84.31 -87.84,126.29 6.36,3.87 12.34,7.77 18.69,11.65 1050.58,-678.4 1587.15,-1668.64 1750.84,-2890.31 19.43,192.26 38.81,384.52 57.85,570.79 180.98,-860.79 -144.28,-2006.6 -501.29,-2462.39 -6.71,14.1 -12.7,29.28 -20.82,42.69 -240.92,402.87 -576.79,694.97 -1017.41,860.42 -98.78,37.04 -203.9,62.09 -308.33,77.26 -148.83,21.87 -284.34,-39.86 -417.69,-95.6 -213.02,-88.9 -408.16,-206.38 -563.03,-382.41 25.44,7.05 48.33,18.34 69.85,31.39 135.14,82.2 281.86,131.59 438.51,140.41 593.01,34.22 1054.45,-220.84 1382.53,-693.91 344.67,-496.37 427.91,-1054.1 273.4,-1641.83 -36.28,-139.01 -72.67,-279.05 -161.57,-400.76 -186.97,64.9 -370.42,128.77 -557.04,193.68 461.82,669.2 132.3,1367.37 -354.89,1623.84 -474.48,250.11 -1229.43,82.19 -1506.01,-708.03 -156.24,214.49 -227.54,460.37 -313.26,728.84 -88.17,-156.29 -176.04,-288.22 -239.89,-431.09 -63.86,-142.88 -103.72,-296.69 -148.17,-428.28 -27.13,28.92 -63.15,72.67 -106.54,107.24 -4.89,3.87 -50.09,-41.98 -67.03,-56.44 -35.57,21.85 -73.02,62.09 -107.95,60.33 -26.04,-1.43 -50.8,-56.1 -73.02,-89.61 -13.35,-20.82 -20.82,-45.86 -38.46,-86.08 -34.9,349.24 -174.97,636.41 -352.77,899.94 -97.65,-228.6 -195.44,-456.49 -292.81,-684.39 -9.16,1.04 -18.34,2.12 -27.16,2.82 -136.86,295.98 -300.57,566.21 -616.66,703.09 -318.15,137.58 -625.47,113.95 -924.99,-50.8 -251.52,-138.29 -419.44,-346.78 -504.46,-619.83 -109.33,-351.74 -32.81,-674.51 168.98,-978.26 -185.21,-59.98 -363.01,-117.47 -551.04,-178.15zm-845.19 -1105.61c-88.58,-101.24 -176.81,-194.37 -256.18,-294.56 -77.59,-98.09 -146.41,-203.2 -230.73,-321.38 90.04,47.62 164.04,86.43 237.78,125.59 -242.68,-425.46 -315.03,-586.67 -366.89,-841.73 83.65,92.42 178.51,198.61 275.16,302.68 15.18,16.22 39.52,23.64 72.32,41.98 -114.29,-319.98 -218.37,-630.06 -218.37,-960.61 0.02,-126.3 26.12,-252.59 42.34,-398.99 63.57,137.92 111.84,257.17 171.81,370.06 219.42,413.09 550.68,720.72 948.61,951.09 464.61,269.51 941.92,517.17 1414.65,772.58 329.17,178.14 668.51,340.79 959.9,579.62 204.69,167.9 395.81,352.42 573.97,512.23 -12.33,-69.85 -178.16,-328.44 -406.4,-571.15 -169.65,-180.63 -355.96,-346.07 -549.27,-531.64 717.2,386.65 1214.96,939.45 1482.36,1713.8 246.63,-756.37 707.33,-1311.28 1406.18,-1662.99 -115.29,102.65 -236.71,200.02 -345.37,310.09 -110.76,112.52 -215.55,232.83 -311.51,358.42 -95.55,124.53 -177.44,259.64 -252.93,402.17 13.79,-11.66 29.98,-21.87 41.27,-35.63 318.28,-382.78 712.25,-664.28 1153.94,-887.59 502.76,-253.66 1005.06,-508.71 1500.36,-776.82 404.64,-219.08 760.94,-505.18 1052.69,-863.95 146.41,-179.58 259.64,-379.24 331.61,-623.01 128.09,468.48 -13.4,890.41 -140.4,1325.39 136.17,-77.63 216.96,-192.26 301.98,-305.51 -50.39,296.32 -186.27,552.1 -360.54,790.22 74.48,6.34 74.43,6.35 240.24,-122.41 -157.66,213.78 -258.23,471.66 -485.42,621.24 1024.83,1561.74 1373.36,3234.98 807.86,5038.38 -565.51,1803.04 -1766.01,3021.89 -3534.13,3690.41 209.94,129.45 242.36,327.72 200.02,555.27 -35.56,190.85 -109.01,364.41 -212.02,525.64 -21.5,-154.17 -29.64,-307.28 -68.08,-452.27 -23.59,-88.55 -84.32,-172.51 -145.35,-244.12 -65.96,-77.27 -145.69,-56.09 -155.22,42.69 -12.34,129.11 1.41,260.7 3.88,390.87 0.37,6.71 0,13.41 0,34.58 -119.57,-131.95 -204.96,-268.47 -228.96,-434.98 -4.91,-32.81 25.76,-69.49 29.28,-105.48 4.31,-47.27 14.11,-106.18 -8.46,-140.4 -20.41,-31.4 -90.31,-59.27 -121.7,-46.57 -40.55,15.87 -81.5,69.5 -93.15,114.3 -39.79,155.22 20.11,288.93 116.43,408.52 25.07,31.39 53.97,59.97 82.9,91.72 -58.86,97.36 -118.19,195.09 -180.27,297.75 -68.78,-98.79 -137.23,-196.5 -210.25,-301.28 -147.77,185.91 -292.46,367.59 -448.03,562.68 -154.16,-185.92 -303.74,-366.18 -459.67,-554.56 -68.03,97.01 -135.12,192.96 -203.2,289.98 -67.71,-89.96 -135.12,-179.21 -206.74,-274.11 44.18,-55.04 93.5,-107.95 133.01,-167.57 74.12,-112.19 119.59,-233.89 80.43,-371.47 -23.61,-83.26 -94.19,-125.59 -164.39,-101.25 -68.06,23.28 -81.85,98.42 -56.1,181.68 18.76,60.32 16.94,129.82 9.88,193.67 -12.31,115.01 -73.02,209.55 -148.87,302.33 -9.49,-101.25 -13.04,-194.73 -28.93,-286.45 -11.6,-67.39 -31.75,-159.1 -108.3,-158.04 -51.09,0.34 -113.24,64.91 -150.28,115.36 -127.35,174.26 -116.42,377.47 -124.89,600.77 -22.22,-31.05 -45.5,-61.38 -66.67,-93.48 -106.84,-163.69 -177.8,-342.55 -191.91,-537.99 -13.36,-178.86 35.27,-336.19 215.55,-437.09 -150.96,-61.74 -291.4,-115 -428.64,-175.69 -492.42,-217.66 -954.26,-487.18 -1363.48,-839.6 -498.79,-430.05 -906.28,-935.22 -1221.31,-1514.83 -290.31,-534.11 -497.06,-1099.26 -609.26,-1695.45 -87.45,-464.97 -115.35,-935.22 -88.89,-1410.76 36.37,-647.7 168.62,-1271.06 406.05,-1873.25 157.37,-399.36 345.71,-782.46 601.83,-1129.24 19.09,-25.77 40.58,-49.75 56.87,-69.86z"/>
   <path class="fil1" d="M7381.35 7703.33c1739.26,-1276.7 4214.99,-1435.8 6198.31,-10.22 -140.41,46.91 -284.34,97.72 -430.4,141.11 -32.44,9.51 -80.08,4.58 -108.3,-13.06 -527.39,-331.96 -1099.61,-547.86 -1710.97,-657.22 -392.25,-70.56 -788.82,-86.79 -1187.8,-55.74 -779.96,61.38 -1501.42,296.33 -2164.65,710.14 -46.21,28.92 -88.9,40.92 -142.52,18.7 -71.56,-29.29 -145,-54.33 -219.07,-76.2 -74.03,-21.89 -149.93,-37.04 -234.6,-57.51z"/>
   <path class="fil1" d="M13048.72 13193.26c-1089.02,58.56 -1918.76,545.05 -2556.22,1397.36 -65.62,-74.45 -129.47,-149.23 -195.09,-221.9 -357.01,-393.35 -756.36,-730.25 -1254.12,-934.16 -258.2,-105.83 -640.65,-221.54 -1037.52,-239.89 194.73,-68.44 369.36,-132.64 560.21,-128.76 508.04,10.93 964.85,173.57 1358.19,491.07 178.55,143.93 329.5,322.44 493.18,484.71 22.63,22.22 47.98,41.63 79.37,68.44 438.88,-593.02 1026.24,-945.09 1766.37,-1031.17 263.18,-31.05 518.23,5.65 785.63,114.3z"/>
   <path class="fil1" d="M10482.69 11395.86c-118.91,66.32 -139.76,150.28 -129.19,247.3 36,329.49 73.03,658.64 109.72,987.78 12,-30.35 45.15,-406.76 52.91,-561.98 8.86,-171.1 16.94,-342.55 16.22,-514 0.02,-50.1 -30.33,-100.54 -49.66,-159.1zm-536.26 530.22c88.58,-138.29 178.47,-276.92 266.31,-416.98 43.81,-70.21 79.72,-145.7 125.59,-214.49 86.49,-129.48 203.91,-135.82 302.69,-14.11 46.61,57.5 79.72,125.94 118.88,189.8 93.15,152.39 186.27,304.8 279.4,457.55 -246.18,269.16 -298.46,635 -423.32,968.73 -20.82,54.67 -36.35,111.47 -59.63,165.1 -10.56,24.34 -33.87,43.39 -51.15,64.56 -22.2,-21.18 -53.99,-38.81 -64.22,-64.92 -42.27,-106.19 -75.13,-216.25 -116.76,-323.14 -78.63,-203.56 -156.29,-407.46 -243.42,-607.49 -32.45,-74.43 -89.6,-137.93 -134.37,-204.61z"/>
   <path class="fil0" d="M3911.75 13759.03l-34.59 -166.42 882.82 -183.52 34.6 166.42 -882.83 183.52zm674.45 48.52c11.41,54.93 9.17,104.46 -6.93,148.68 -16.15,43.99 -45.38,81.2 -87.58,111.17 -41.95,30.12 -95.8,51.9 -161.48,65.56l-326.61 67.89 -34.55 -166.2 330.95 -68.79c44.97,-9.35 77.59,-27.16 97.94,-53.02 20.32,-26.05 26.68,-57.86 18.84,-95.57 -10.34,-49.74 -31.83,-85.48 -64.24,-107.28 -32.38,-21.59 -72.94,-27.43 -122.06,-17.22l-69.84 14.52 -8.1 -38.96 144.65 -30.07c51.4,-10.68 97.14,-11.11 136.98,-1.46 40.06,9.62 73.04,28.92 98.95,57.92 25.92,28.98 43.47,66.62 53.08,112.83zm-779.3 -790.27l-7.35 -107.49 876.08 -405.51 12.47 182.45 -599.58 257.4 629.02 173.19 12.48 182.45 -923.12 -282.49zm604.35 138.38l-32.35 -473.25 163.24 -11.16 32.35 473.25 -163.24 11.16zm284.12 -1052.35c-0.49,68.57 -14.03,127.32 -40.62,175.81 -26.59,48.72 -65.17,85.48 -115.51,110.74 -50.35,25.46 -111.18,37.73 -182.3,37.22l-247.43 -1.75c-71.12,-0.51 -131.57,-13.64 -181.77,-39.81 -49.97,-25.97 -88.02,-63.28 -114.13,-112.37 -26.12,-48.86 -39.03,-107.8 -38.54,-176.37 0.4,-56.52 13.03,-107.23 37.69,-151.72 24.66,-44.49 60.48,-81.06 107.25,-109.94 46.56,-28.67 102.8,-48.59 168.7,-59.14l0 0 -1.25 176.11 0 0c-29.89,6.35 -55.36,16.33 -76.41,30.15 -21.27,13.61 -37.48,30.21 -48.83,49.82 -11.36,19.6 -17.02,41.57 -17.19,65.92 -0.23,31.96 6.15,58.89 18.9,81.42 12.96,22.31 31.89,39.6 56.78,51.62 24.89,11.82 54.91,17.96 90.05,18.21l247.43 1.76c35.13,0.25 65.23,-5.47 90.07,-16.93 24.86,-11.68 43.82,-28.69 57.09,-50.82 13.07,-22.35 19.82,-49.18 20.05,-81.14 0.18,-24.77 -5.16,-47.25 -15.81,-67 -10.87,-19.98 -26.84,-36.81 -47.7,-50.72 -21.07,-13.69 -46.61,-23.82 -76.83,-30.18l0 0 1.25 -176.1 0 0c65.74,11.89 121.69,32.82 168.05,62.15 46.14,29.54 81.44,66.62 105.46,111.24 24.04,44.62 35.95,95.3 35.55,151.82zm-785.03 -704.71l22.01 -168.54 820.86 107.18 -22.01 168.54 -820.86 -107.18zm-105.04 233.91l85.59 -655.48 162.45 21.21 -85.59 655.48 -162.45 -21.21zm243.05 -1328.87l44.83 -163.95 869.77 237.84 -44.84 163.95 -869.76 -237.84zm-130.2 476.13l44.77 -163.75 869.77 237.84 -44.78 163.75 -869.76 -237.84zm380.31 22.36l138.51 -506.55 157.83 43.16 -138.52 506.55 -157.82 -43.16zm842.01 -901.95c-21.47,61.79 -53.37,111.65 -95.68,149.61 -42.39,38.15 -91.62,61.83 -148.17,71.08 -56.36,9.32 -115.78,3.01 -178.16,-18.67l-241.33 -83.86c-62.58,-21.75 -113.12,-53.65 -151.54,-95.91 -38.42,-42.26 -62.56,-91.43 -72.16,-147.65 -9.67,-56.02 -3.76,-114.91 17.72,-176.7 21.39,-61.57 53.28,-111.45 95.61,-149.4 42.39,-38.15 91.81,-61.75 148.17,-71.08 56.34,-9.32 115.77,-3.01 178.35,18.73l241.34 83.87c62.38,21.68 112.9,53.58 151.33,95.84 38.63,42.33 62.57,91.43 72.16,147.65 9.66,56.01 3.76,114.92 -17.64,176.49zm-160.55 -55.79c10,-28.79 12.63,-56.33 8.01,-82.36 -4.75,-26.31 -16.31,-49.15 -34.74,-69 -18.69,-19.71 -42.6,-34.74 -72.39,-45.09l-249.52 -86.71c-29.59,-10.29 -57.87,-13.39 -84.55,-9.45 -26.97,4.07 -50.2,14.82 -70.24,32.52 -19.77,17.55 -34.8,40.78 -44.8,69.57 -10.08,28.99 -12.69,56.54 -8.08,82.58 4.76,26.3 16.32,49.14 34.94,69.05 18.49,19.65 42.6,34.75 72.19,45.04l249.52 86.71c29.8,10.35 57.87,13.38 84.76,9.51 26.76,-4.15 50,-14.9 70.03,-32.58 19.77,-17.56 34.79,-40.8 44.87,-69.79zm-439.03 -843.4l80.83 -149.28 792.93 429.32 -80.83 149.28 -792.93 -429.32zm678.28 297.44l258.3 -477.07 143.88 77.91 -258.3 477.06 -143.88 -77.9zm-321.83 -174.25l225.85 -417.13 143.88 77.91 -225.84 417.12 -143.89 -77.9zm-327.22 -177.17l258.3 -477.06 144.06 78 -258.29 477.06 -144.07 -78zm3221.95 -2166.5c-57.51,31.17 -114.68,46.51 -171.52,46.03 -57.02,-0.39 -109.35,-16.08 -157.36,-47.36 -47.92,-31.1 -87.56,-75.81 -119.03,-133.87l-121.76 -224.61c-31.57,-58.25 -47.4,-115.87 -47.3,-172.99 0.09,-57.11 15.41,-109.71 46.21,-157.71 30.61,-47.89 74.67,-87.42 132.18,-118.59 57.31,-31.06 114.48,-46.42 171.33,-45.92 57.03,0.39 109.45,16.26 157.37,47.36 47.9,31.08 87.55,75.8 119.12,134.05l121.76 224.61c31.47,58.06 47.29,115.68 47.2,172.8 0,57.3 -15.41,109.71 -46.21,157.71 -30.62,47.89 -74.68,87.42 -131.99,118.49zm-81 -149.43c26.79,-14.52 47.3,-33.1 61.43,-55.44 14.22,-22.64 21.08,-47.31 20.84,-74.39 -0.53,-27.16 -8.05,-54.37 -23.08,-82.1l-125.89 -232.23c-14.93,-27.55 -33.73,-48.9 -56.09,-63.97 -22.67,-15.16 -47.08,-22.89 -73.8,-23.32 -26.44,-0.36 -53.2,6.68 -80,21.2 -26.98,14.63 -47.48,33.21 -61.62,55.56 -14.21,22.63 -21.06,47.3 -20.73,74.56 0.41,26.98 8.05,54.38 22.98,81.92l125.88 232.24c15.03,27.73 33.72,48.89 56.2,64.15 22.57,14.98 46.98,22.7 73.7,23.14 26.44,0.35 53.2,-6.69 80.18,-21.32zm587.47 -521.04l-27.5 -19.95 -473.28 -344.26 164.62 -71.01 320.91 233.64 37.59 27.82 488.79 355.1 -164.43 70.92 -346.7 -252.26zm-71.93 -171.6l48.89 -398.67 164.62 -71 -71.99 586.13 -55.44 450.83 -164.62 71 78.54 -638.29zm646.42 -188.84l281.47 -62.35c19.84,-4.4 36.19,-12.79 49.48,-25.27 13.07,-12.44 22,-27.86 26.82,-46.27 4.81,-18.41 4.93,-38.38 0.21,-59.67l0 0c-4.85,-21.91 -13.23,-40.21 -25.21,-55.12 -12.18,-14.86 -26.59,-25.11 -43.69,-30.86 -17.31,-5.7 -35.88,-6.36 -56.14,-1.87l-281.46 62.35 -35.44 -159.95 277.34 -61.44c54.76,-12.13 105.59,-11.69 152.33,1.59 46.9,13.03 86.14,37.51 118.3,73.08 32,35.84 54.01,80.39 65.92,134.13l0 0c11.9,53.73 10.77,103.41 -3.2,149 -14.17,45.62 -39.45,84.18 -76.46,115.8 -36.85,31.36 -82.73,53.23 -137.49,65.36l-277.34 61.44 -35.44 -159.95zm-159.59 -362.26l165.74 -36.71 195.02 880.35 -165.74 36.72 -195.02 -880.36zm1096.01 -207.43l107.38 -8.79 417.23 870.56 -182.27 14.92 -265.42 -596.07 -164.73 631.28 -182.27 14.92 270.08 -926.82zm-130.26 606.15l472.77 -38.7 13.35 163.08 -472.77 38.7 -13.35 -163.08zm1270.01 -634.09l169.96 1.77 -9.39 901.65 -169.96 -1.77 9.39 -901.65zm-493.58 -5.15l169.75 1.77 -9.39 901.65 -169.76 -1.77 9.4 -901.65zm74.85 373.54l525.12 5.47 -1.7 163.62 -525.12 -5.48 1.7 -163.61zm1419.15 -210.14l167.3 30.01 -159.18 887.53 -167.3 -30 159.18 -887.54zm-485.85 -87.14l167.09 29.97 -159.19 887.53 -167.09 -29.96 159.19 -887.54zm11.7 380.78l516.9 92.71 -28.89 161.05 -516.9 -92.71 28.89 -161.05zm959.08 810.64c-61.95,-20.98 -112.07,-52.47 -150.37,-94.47 -38.49,-42.08 -62.57,-91.12 -72.28,-147.59 -9.78,-56.28 -3.95,-115.75 17.23,-178.3l81.91 -242.01c21.24,-62.75 52.72,-113.55 94.67,-152.3 41.95,-38.77 90.93,-63.3 147.06,-73.36 55.94,-10.12 114.88,-4.69 176.84,16.29 61.75,20.9 111.88,52.38 150.17,94.39 38.49,42.08 62.49,91.32 72.28,147.6 9.78,56.26 3.95,115.74 -17.29,178.5l-81.91 242c-21.17,62.55 -52.67,113.34 -94.61,152.11 -42.02,38.96 -90.93,63.3 -147.06,73.35 -55.94,10.11 -114.89,4.69 -176.64,-16.21zm54.5 -161c28.87,9.77 56.43,12.17 82.42,7.34 26.27,-4.96 49.02,-16.71 68.71,-35.29 19.56,-18.86 34.4,-42.88 44.51,-72.76l84.69 -250.21c10.04,-29.68 12.92,-57.98 8.76,-84.63 -4.29,-26.93 -15.23,-50.07 -33.08,-69.97 -17.71,-19.62 -41.07,-34.46 -69.94,-44.24 -29.07,-9.84 -56.64,-12.23 -82.64,-7.4 -26.26,4.96 -49,16.71 -68.77,35.49 -19.49,18.65 -34.4,42.88 -44.44,72.55l-84.69 250.22c-10.12,29.88 -12.92,57.97 -8.83,84.83 4.36,26.73 15.3,49.88 33.14,69.77 17.73,19.63 41.09,34.46 70.16,44.3zm823.13 -442.64l151.17 77.24 -410.26 802.96 -151.17 -77.23 410.26 -802.97zm-281.15 685.19l483.1 246.83 -74.45 145.71 -483.09 -246.83 74.44 -145.71zm166.51 -325.89l422.4 215.82 -74.44 145.7 -422.4 -215.82 74.44 -145.7zm169.31 -331.37l483.09 246.83 -74.54 145.89 -483.09 -246.82 74.54 -145.9zm2881.84 2783.73l90.11 144.12 -764.57 478.01 -90.11 -144.12 764.57 -478.01zm-261.68 -418.54l90 143.94 -764.57 478.02 -89.99 -143.95 764.56 -478.01zm41.75 66.76l278.39 445.29 -138.91 86.85 -278.4 -445.29 138.92 -86.85zm122.52 1020.14l117.37 263.32c8.27,18.56 19.76,32.91 34.65,43.43 14.8,10.32 31.69,15.99 50.69,17.03 19.01,1.03 38.6,-2.84 58.51,-11.72l0 0c20.5,-9.13 36.75,-21.01 48.96,-35.73 12.13,-14.89 19.3,-31.07 21.51,-48.97 2.13,-18.1 -0.94,-36.43 -9.39,-55.38l-117.36 -263.32 149.64 -66.69 115.64 259.45c22.83,51.23 32.56,101.13 28.89,149.57 -3.38,48.56 -19.52,91.9 -47.96,130.52 -28.71,38.53 -67.96,69 -118.24,91.41l0 0c-50.26,22.4 -99.16,31.22 -146.63,26.65 -47.53,-4.76 -90.37,-21.82 -128.74,-51.76 -38.1,-29.84 -68.7,-70.42 -91.53,-121.66l-115.65 -259.45 149.64 -66.7zm323.04 -228.79l69.11 155.05 -823.6 367.09 -69.11 -155.06 823.6 -367.08zm326.95 815.26l53.57 161.08 -855.62 284.55 -53.57 -161.08 855.62 -284.55zm-680.99 291.17l171.2 514.78 -155.26 51.63 -171.2 -514.78 155.26 -51.63zm347.27 -115.49l149.69 450.1 -155.26 51.63 -149.69 -450.1 155.26 -51.63zm353.09 -117.43l171.2 514.78 -155.46 51.7 -171.19 -514.78 155.45 -51.7zm-517.67 870.55l2.82 14.54c7.09,36.58 29.61,61.53 67.39,75.13 37.78,13.59 87.5,14.3 149.22,2.33l530.3 -102.81 32.35 166.86 -504.74 97.86c-73.36,14.22 -137.63,16.33 -192.54,6.71 -54.94,-9.84 -99.81,-32.19 -134.34,-66.89 -34.55,-34.7 -57.6,-82.4 -69.32,-142.87l-5.2 -26.8 124.06 -24.06zm-0.93 -4.78l31.14 160.63 -343.9 66.68 -31.14 -160.63 343.9 -66.68zm0 0l143.99 742.67 -160.63 31.14 -143.99 -742.67 160.63 -31.14zm122.72 632.96l31.3 161.45 -343.91 66.67 -31.3 -161.45 343.91 -66.67zm704.76 -242.72l32.35 166.85 -885.21 171.62 -32.35 -166.85 885.21 -171.62zm-58.29 -300.69l72.23 372.58 -160.83 31.18 -72.24 -372.58 160.84 -31.18zm131.26 1357.77l1.21 169.96 -901.68 6.4 -1.2 -169.96 901.67 -6.4zm-3.5 -493.6l1.21 169.76 -901.68 6.39 -1.21 -169.75 901.68 -6.4zm0.56 78.74l3.73 525.13 -163.83 1.17 -3.73 -525.14 163.83 -1.16zm-391.12 901.95l-19.67 287.62c-1.38,20.27 2.05,38.32 10.27,54.59 8.25,16.05 20.51,28.98 36.81,38.79 16.31,9.82 35.43,15.58 57.18,17.06l0 0c22.39,1.54 42.31,-1.34 60,-8.62 17.69,-7.48 31.6,-18.42 41.94,-33.2 10.36,-14.99 16.23,-32.62 17.65,-53.32l19.66 -287.62 163.45 11.18 -19.37 283.4c-3.83,55.96 -18.61,104.59 -44.55,145.68 -25.73,41.31 -60.3,72.04 -103.51,92.84 -43.42,20.59 -92.37,29.12 -147.28,25.36l0 0c-54.91,-3.75 -102.24,-18.86 -142.03,-45.14 -39.77,-26.47 -69.62,-61.61 -89.5,-106.04 -19.68,-44.21 -27.7,-94.4 -23.88,-150.36l19.38 -283.4 163.45 11.18zm392.58 -50.81l-11.58 169.36 -899.6 -61.51 11.58 -169.36 899.6 61.51zm-1080.66 1242.88l703.16 160 -18.97 10.89 -611.96 -488.32 44.99 -197.72 878.6 199.92 -36.02 158.31 -713.49 -162.36 18.97 -10.88 622 491.9 -44.71 196.49 -878.6 -199.93 36.03 -158.3zm155.31 663.64c16.96,-48.78 42.89,-87.94 77.67,-117.77 34.73,-29.61 75.79,-47.83 122.81,-54.79 46.94,-6.77 96.73,-1.12 148.92,17.02l0 0c52.38,18.2 95.02,44.45 127.65,78.87 32.7,34.22 53.42,73.91 62.49,118.74 8.8,44.96 4.79,91.97 -12.3,141.16l-97.34 280.11 -154.75 -53.77 90.81 -261.32c6.81,-19.6 8.38,-38.33 4.52,-56.25 -3.85,-17.92 -12.69,-33.76 -26.5,-47.53 -13.81,-13.76 -31.42,-24.36 -53.01,-31.87l0 0c-21.4,-7.43 -41.78,-10.03 -61.23,-7.61 -19.44,2.44 -36.19,9.39 -50.34,21.06 -14.06,11.47 -24.57,26.86 -31.38,46.46l-90.81 261.32 -154.55 -53.71 97.34 -280.12zm44.13 -11.55l-82.58 150.56 -262.05 -322.76 63.5 -182.74 281.13 354.94zm415.3 389.92l-55.8 160.55 -852.34 -296.2 55.8 -160.55 852.34 296.2zm-301.96 539.91l-78.53 150.74 -734.16 -382.51 78.54 -150.74 734.15 382.51zm178.97 -183.62l-305.44 586.24 -145.3 -75.7 305.45 -586.24 145.29 75.7zm-1404.21 693.04l624.89 359.93 -21.33 4.82 -441.07 -646.84 101.21 -175.72 780.8 449.74 -81.04 140.68 -634.07 -365.22 21.34 -4.81 449.62 653.22 -100.58 174.62 -780.8 -449.74 81.03 -140.68zm477.99 861.92l-107.89 131.07 -696.16 -573.08 107.89 -131.07 696.16 573.08zm-608.85 -421.69l-344.79 418.84 -126.33 -103.99 344.79 -418.84 126.33 103.99zm282.54 232.59l-301.46 366.22 -126.33 -103.99 301.47 -366.22 126.32 103.99zm287.29 236.5l-344.78 418.84 -126.49 -104.12 344.79 -418.84 126.48 104.12z"/>
   <path class="fil0" d="M9286.32 19501.29c-67.44,-12.49 -122.91,-36.1 -165.99,-70.77 -43.31,-34.71 -72.75,-79.13 -88.8,-133.11 -16.26,-54.04 -17.69,-116.07 -4.74,-186.01l45.05 -243.3c12.95,-69.93 36.45,-127.15 71.01,-171.99 34.32,-44.65 77.71,-75.58 130.61,-92.7 52.69,-17.15 112.97,-19.55 180.41,-7.06 55.57,10.29 103.29,31.6 142.77,63.67 39.48,32.07 69.22,73.74 89.47,124.84 20.07,50.86 29.84,109.72 28.68,176.45l0 0 -173.16 -32.06 0 0c-1.02,-30.55 -6.39,-57.37 -16.31,-80.52 -9.67,-23.32 -23.19,-42.18 -40.51,-56.79 -17.3,-14.61 -37.94,-24.04 -61.89,-28.47 -31.42,-5.82 -59.05,-4.25 -83.46,4.35 -24.24,8.86 -44.57,24.47 -60.77,46.87 -15.99,22.44 -27.3,50.92 -33.7,85.47l-45.04 243.3c-6.4,34.55 -6.04,65.18 0.9,91.65 7.14,26.51 20.57,48.16 40.03,65.11 19.72,16.78 44.95,28.12 76.38,33.94 24.36,4.51 47.42,3.19 68.74,-3.84 21.57,-7.2 40.94,-19.98 58.28,-38.08 17.17,-18.35 31.62,-41.72 43.17,-70.36l0 0 173.16 32.06 0 0c-23.22,62.65 -53.62,114.06 -90.61,154.57 -37.16,40.26 -79.85,68.52 -127.99,84.36 -48.14,15.85 -100.12,18.71 -155.69,8.42zm782.47 103.12c-65.19,-5.35 -121.44,-23.78 -168.76,-55.26 -47.53,-31.52 -82.77,-73.27 -105.85,-125.71 -23.12,-52.24 -31.85,-111.35 -26.45,-177.17l20.9 -254.63c5.42,-66.03 23.67,-122.94 55,-170.7 31.31,-47.77 72.89,-83.42 124.93,-106.77 51.82,-23.36 110.32,-32.35 175.51,-27 64.98,5.33 121.24,23.75 168.56,55.24 47.53,31.52 82.74,73.48 105.85,125.71 23.11,52.23 31.85,111.35 26.43,177.38l-20.9 254.63c-5.4,65.82 -23.66,122.72 -54.98,170.49 -31.34,47.97 -72.89,83.42 -124.93,106.76 -51.82,23.35 -110.33,32.36 -175.31,27.03zm13.91 -169.4c30.38,2.49 57.7,-1.85 81.75,-12.83 24.29,-11.17 43.51,-28.08 58.13,-50.88 14.41,-23.02 22.99,-49.92 25.57,-81.36l21.61 -263.27c2.56,-31.23 -1.5,-59.38 -11.98,-84.23 -10.69,-25.09 -26.9,-44.91 -49.04,-59.89 -21.94,-14.75 -48.19,-23.5 -78.57,-25.99 -30.59,-2.51 -57.91,1.84 -81.97,12.82 -24.28,11.17 -43.5,28.07 -58.13,51.08 -14.41,22.81 -23.01,49.93 -25.57,81.15l-21.61 263.28c-2.58,31.43 1.5,59.37 11.98,84.44 10.7,24.88 26.91,44.69 49.04,59.67 21.95,14.76 48.2,23.49 78.79,26.01zm557.2 18.14l286.91 -23.28c38.62,-3.14 67.81,-15.06 87.59,-35.56 19.78,-20.51 28.21,-47.53 25.48,-81.28l-0.16 -1.9c-1.83,-22.58 -8.26,-41.59 -19.06,-56.86 -10.6,-15.49 -25.51,-26.59 -44.56,-33.55 -19.03,-6.95 -41.31,-9.38 -66.85,-7.31l-286.92 23.28 -13.23 -163.08 286.92 -23.29c35.02,-2.84 61.3,-13.89 79.07,-33.17 17.76,-19.28 25.23,-44.94 22.61,-77.22l0 0c-2.33,-28.7 -13.65,-50.49 -34.15,-64.97 -20.5,-14.48 -48.16,-20.3 -83.18,-17.46l-286.92 23.28 -13.25 -163.29 292.41 -23.73c58.02,-4.71 108.59,0.96 151.27,16.61 42.7,15.86 76.4,41.15 100.67,75.92 24.48,34.75 38.78,77.55 42.94,128.81l0 0c2.84,35.03 -1.6,66.61 -13.14,94.52 -11.73,28.13 -29.98,51.91 -54.95,71.34 -24.97,19.45 -55.66,33.83 -92.29,42.96 39.9,2.28 74.84,11.55 104.63,28.04 29.8,16.48 53.07,39.01 70.08,68 17.22,28.97 27.21,63.2 30.42,102.65l0.15 1.9c4.18,51.47 -3,96.44 -21.54,134.9 -18.75,38.47 -47.93,68.87 -87.93,91.44 -39.8,22.55 -88.82,36.09 -146.83,40.8l-302.96 24.58 -13.23 -163.08zm-133.75 -729.65l169.2 -13.73 72.93 898.74 -169.21 13.73 -72.92 -898.74zm980.77 -109.79l105.98 -19.4 501.48 824.91 -179.89 32.92 -323.2 -566.82 -101.34 644.5 -179.89 32.92 176.86 -949.03zm-69.52 616.08l466.6 -85.38 29.45 160.95 -466.6 85.38 -29.45 -160.95z"/>
  </g>
 </g>
</svg>
